<?xml version="1.0" encoding="utf-8"?>
<!-- Svg Vector Icons : http://www.onlinewebfonts.com/icon -->
<!DOCTYPE svg PUBLIC "-//W3C//DTD SVG 1.1//EN" "http://www.w3.org/Graphics/SVG/1.1/DTD/svg11.dtd">
<svg version="1.1" xmlns="http://www.w3.org/2000/svg" xmlns:xlink="http://www.w3.org/1999/xlink" x="0px" y="0px" viewBox="0 0 256 256" enable-background="new 0 0 256 256" xml:space="preserve">
<metadata> Svg Vector Icons : http://www.onlinewebfonts.com/icon </metadata>
<g><g><g><path fill="#ffffff" d="M115.7,10.7c-32.8,4.8-60.2,27.6-70.6,58.7c-3.1,9.4-4,14.5-4.3,24.7c-0.4,12.7,0.8,21.7,4.6,34.2c8.1,26.8,26.5,57.1,52.7,87c7.7,8.8,18.7,20.3,24.7,25.9l5.2,4.8l3.3-2.9c6-5.3,17.4-16.5,23.8-23.6c35.6-39.1,55.8-76.5,59.8-110.8c0.8-7.6,0.3-21.6-1-28.2c-2.5-11.8-7.9-24.5-14.7-34.1c-4.3-6-14.4-16.1-20.4-20.3c-8.4-6-19.1-10.9-28.9-13.5C139.8,10,125.9,9.3,115.7,10.7z M139.5,31.5c8.6,1.4,18.2,5.4,26,10.7c5.2,3.6,13.1,11.6,16.7,17c7.7,11.5,11.2,23.1,11.2,36.9c0,17.9-6.4,33.1-19.2,45.9c-9.8,9.8-20.8,15.7-34.3,18.3c-6.6,1.3-17.8,1.2-24.4-0.2c-26.7-5.5-46.6-25.7-51.9-52.7c-1.3-6.6-1.1-17.7,0.2-24.4c1.1-5.2,3.7-12.6,5.8-16.8c3.8-7.6,11.7-17,18.5-22.2C103.2,32.6,120.6,28.4,139.5,31.5z"/><path fill="#ffffff" d="M120.7,45.7c-4.6,1.1-9.1,3.7-12.3,7c-4.3,4.3-4.8,6.1-4.8,16.3v8h-1.4c-2.8,0-3.7,4.3-2.1,9.9c1.5,5.2,4.6,9,6.2,7.5c0.4-0.4,0.8,0.1,1.7,2.2c0.6,1.5,1.8,3.6,2.7,4.6c1.5,1.9,1.5,1.9,1.4,7.4l-0.1,5.5l-8.6,2.9c-14.9,5-15.6,5.3-18.6,7.9c-1.4,1.4-2.7,2.7-2.7,3.1c0,1.3,6.7,8.8,10.5,11.9c7.1,5.6,13.5,8.9,22,11.2c5.9,1.5,17.6,1.8,23.8,0.5c14.2-3,25.5-10.2,34.2-21.9l1.4-1.8l-1.3-1.5c-2.6-3.1-5.4-4.4-17.1-8.4l-11.5-3.9l-0.1-5.5l-0.1-5.6l1.6-1.8c0.9-1,2-2.9,2.6-4.1c0.7-1.7,1.5-2.6,2.8-3.3c2.4-1.1,5.3-7,5.8-11.3c0.2-2.8,0.2-3.1-1-4.3c-1-1-1.6-1.2-3-1l-1.7,0.3l0.1-8.6c0.1-7-0.1-9-0.8-11.1c-1.2-3.4-4.2-6.1-6.8-6.1c-0.5,0-2.1-1-3.4-2.2c-3.6-3.3-6.3-4.3-11.9-4.5C125.3,45.1,122.2,45.3,120.7,45.7z M137.9,130.7c-2.6,8.5-4.8,15.4-4.9,15.3c-0.1,0-0.9-4-1.9-8.6c-0.9-4.7-1.8-8.7-1.9-8.9c-0.1-0.2,0.5-1.1,1.4-2c2-1.9,2.1-2.5,0.7-2.5c-0.5,0-1-0.1-1-0.4c0-0.3,11.9-8.4,12.2-8.3C142.7,115.3,140.6,122.3,137.9,130.7z M119.7,119.6c5.7,3.9,6,4.1,4.5,4.3l-1.5,0.3l2,2c1.2,1.3,1.9,2.3,1.7,2.7c-0.2,0.3-1.1,4.3-2,8.9c-0.9,4.5-1.7,8.2-1.7,8.1c-0.1-0.1-2.2-6.8-4.7-15c-2.5-8.1-4.6-15-4.8-15.2C112.8,115.1,114,115.8,119.7,119.6z"/></g></g></g>
</svg>